# xmcd
#
# Track frame offsets:
#	150
#	20866
#	45713
#	70523
#	93821
#	118397
#	142202
#	164888
#	182609
#	204794
#
# Disc length: 3164 seconds
#
# Revision: 3667435082
# Processed by: cddbd v1.5.2PL0 Copyright (c) Steve Scherf et al.
# Submitted via: EZCDAudioConverter 8.0.2.1
#
DISCID=910c5a0a
DTITLE=Thanh Long Bass - Anh Còn Nợ Em
DYEAR=2010
DGENRE=World Pop
TTITLE0=Thanh Long Bass - Anh còn nợ em
TTITLE1=Thanh Long Bass - Em hãy ngủ đi
TTITLE2=Thanh Long Bass, Hồng Hạnh - Anh Còn Nợ Em
TTITLE3=Thanh Long Bass - Ru tình
TTITLE4=Thanh Long Bass - Phút cuối
TTITLE5=Thanh Long Bass - Chiều nay không có em
TTITLE6=Thanh Long Bass - Một mình
TTITLE7=Thanh Long Bass - Mộng dưới hoa
TTITLE8=Thanh Long Bass - Mắt biếc
TTITLE9=Thanh Long Bass, Hồng Hạnh - Con đường tình ta đi
EXTD=
EXTT0=
EXTT1=
EXTT2=
EXTT3=
EXTT4=
EXTT5=
EXTT6=
EXTT7=
EXTT8=
EXTT9=
PLAYORDER=
